# xmcd
#
# Track frame offsets: 
#        150
#        13642
#        35455
#        55427
#        74181
#        87291
#        111334
#        126346
#        148675
#        169205
#        185489
#        206811
#        225248
#
# Disc length: 3198 seconds
#
# Revision: 0
# Processed by: cddbd v1.5.2PL0 Copyright (c) Steve Scherf et al.
# Submitted via: ExactAudioCopy v0.95b4
#
DISCID=c30c7c0d
DTITLE=Forest and Kaylon McDonald - Certified Blue
DYEAR=2010
DGENRE=Blues
TTITLE0=Keeping The Blues Alive
TTITLE1=Till The Morning Light
TTITLE2=Mess Around With Love
TTITLE3=R&R Bye Bye Bye
TTITLE4=Danced Our Last
TTITLE5=You Keep Telling Me
TTITLE6=Double Back
TTITLE7=Double Dipping Man
TTITLE8=Trying To Get By
TTITLE9=Piney Brown
TTITLE10=Gas Pump Blues Revisited
TTITLE11=Certified Blue
TTITLE12=Chicken Scratch Boogie
EXTD=
EXTT0=
EXTT1=
EXTT2=
EXTT3=
EXTT4=
EXTT5=
EXTT6=
EXTT7=
EXTT8=
EXTT9=
EXTT10=
EXTT11=
EXTT12=
PLAYORDER=
